<?xml version="1.0" standalone="no"?>
<!DOCTYPE svg PUBLIC "-//W3C//DTD SVG 20010904//EN"
 "http://www.w3.org/TR/2001/REC-SVG-20010904/DTD/svg10.dtd">
<svg version="1.0" xmlns="http://www.w3.org/2000/svg"
 width="96.000000pt" height="96.000000pt" viewBox="0 0 96.000000 96.000000"
 preserveAspectRatio="xMidYMid meet">
<metadata>
Created by potrace 1.14, written by Peter Selinger 2001-2017
</metadata>
<g transform="translate(0.000000,96.000000) scale(0.100000,-0.100000)"
fill="#000000" stroke="none">
<path d="M385 855 c-22 -23 -25 -34 -25 -100 l0 -75 -114 0 c-106 0 -115 -1
-140 -25 l-26 -24 0 -238 c0 -131 3 -248 6 -261 14 -49 37 -52 394 -52 347 0
378 4 394 45 3 9 6 126 6 260 0 308 10 289 -159 293 l-121 4 0 64 c0 68 -17
117 -45 128 -9 3 -45 6 -80 6 -55 0 -68 -4 -90 -25z m135 -155 l0 -100 -40 0
-40 0 0 100 0 100 40 0 40 0 0 -100z m-153 -130 c14 -37 46 -50 123 -50 50 0
63 4 85 25 14 14 25 32 25 40 0 12 19 15 100 15 l100 0 0 -220 0 -220 -320 0
-320 0 0 220 0 220 98 0 98 0 11 -30z"/>
<path d="M320 460 c-11 -11 -20 -29 -20 -40 0 -11 9 -29 20 -40 11 -11 29 -20
40 -20 28 0 60 35 60 64 0 27 -33 56 -62 56 -10 0 -27 -9 -38 -20z"/>
<path d="M560 450 l0 -30 80 0 80 0 0 30 0 30 -80 0 -80 0 0 -30z"/>
<path d="M560 330 l0 -30 80 0 80 0 0 30 0 30 -80 0 -80 0 0 -30z"/>
<path d="M303 322 c-33 -10 -63 -39 -63 -62 0 -19 6 -20 120 -20 112 0 120 1
120 19 0 53 -95 87 -177 63z"/>
</g>
</svg>
